<svg width="64" height="64" viewBox="0 0 64 64" fill="none" xmlns="http://www.w3.org/2000/svg">
<path d="M24.4995 26.5734C25.0778 25.9367 26.0245 25.3334 27.4162 25.3334C29.3362 25.3334 30.5728 26.6534 31.0078 28.1017C31.4295 29.5134 31.1745 31.26 29.9745 32.465C29.5583 32.8652 29.1168 33.2382 28.6528 33.5817L28.5862 33.6334C28.1195 33.9934 27.7028 34.32 27.3362 34.6834C26.9112 35.11 26.5628 35.575 26.3612 36.1667H29.9162C30.2477 36.1667 30.5656 36.2984 30.8001 36.5328C31.0345 36.7672 31.1662 37.0852 31.1662 37.4167C31.1662 37.7482 31.0345 38.0662 30.8001 38.3006C30.5656 38.535 30.2477 38.6667 29.9162 38.6667H24.9162C24.5847 38.6667 24.2667 38.535 24.0323 38.3006C23.7979 38.0662 23.6662 37.7482 23.6662 37.4167C23.6662 35.3384 24.5395 33.945 25.5728 32.915C26.0662 32.4217 26.6028 32.0067 27.0562 31.655L27.0612 31.6517C27.5378 31.2834 27.9078 30.9967 28.2028 30.7017C28.6562 30.245 28.8145 29.4934 28.6128 28.8184C28.4212 28.1834 27.9962 27.8334 27.4162 27.8334C26.8278 27.8334 26.5245 28.0617 26.3495 28.255C26.2471 28.368 26.1638 28.4969 26.1028 28.6367V28.6417C26.0007 28.9573 25.7774 29.2194 25.4821 29.3704C25.1867 29.5214 24.8434 29.5488 24.5278 29.4467C24.2122 29.3446 23.9501 29.1213 23.7991 28.8259C23.6482 28.5306 23.6207 28.1873 23.7228 27.8717L23.7812 27.7117C23.9524 27.2937 24.1949 26.9085 24.4978 26.5734H24.4995Z" fill="#FFB21E"/>
<path d="M34.083 25.3334C34.4145 25.3334 34.7325 25.4651 34.9669 25.6995C35.2013 25.9339 35.333 26.2519 35.333 26.5834V31.1667H37.833V26.5834C37.833 26.2519 37.9647 25.9339 38.1991 25.6995C38.4335 25.4651 38.7515 25.3334 39.083 25.3334C39.4145 25.3334 39.7325 25.4651 39.9669 25.6995C40.2013 25.9339 40.333 26.2519 40.333 26.5834V37.3667C40.333 37.6982 40.2013 38.0162 39.9669 38.2506C39.7325 38.485 39.4145 38.6167 39.083 38.6167C38.7515 38.6167 38.4335 38.485 38.1991 38.2506C37.9647 38.0162 37.833 37.6982 37.833 37.3667V33.6667H34.083C33.7515 33.6667 33.4335 33.535 33.1991 33.3006C32.9647 33.0662 32.833 32.7482 32.833 32.4167V26.5834C32.833 26.2519 32.9647 25.9339 33.1991 25.6995C33.4335 25.4651 33.7515 25.3334 34.083 25.3334Z" fill="#FFB21E"/>
<path d="M48.6663 32C48.6663 22.795 41.2047 15.3334 31.9997 15.3334C22.7947 15.3334 15.333 22.795 15.333 32C15.333 41.205 22.7947 48.6667 31.9997 48.6667C41.2047 48.6667 48.6663 41.205 48.6663 32ZM17.833 32C17.833 28.2428 19.3256 24.6395 21.9823 21.9827C24.6391 19.3259 28.2424 17.8334 31.9997 17.8334C35.7569 17.8334 39.3603 19.3259 42.017 21.9827C44.6738 24.6395 46.1663 28.2428 46.1663 32C46.1663 35.7573 44.6738 39.3606 42.017 42.0174C39.3603 44.6742 35.7569 46.1667 31.9997 46.1667C28.2424 46.1667 24.6391 44.6742 21.9823 42.0174C19.3256 39.3606 17.833 35.7573 17.833 32Z" fill="#FFB21E"/>
<circle cx="32" cy="32" r="31.5" stroke="black" stroke-opacity="0.1"/>
<path d="M1.92984 21.0553C-0.843805 28.6759 -0.62068 37.0652 2.55411 44.5275C5.7289 51.9899 11.6185 57.9685 19.0324 61.2548C26.4463 64.5411 34.8314 64.8899 42.4926 62.2309C50.1538 59.5718 56.5198 54.1031 60.3035 46.9303L59.4544 46.4824C55.7842 53.44 49.6092 58.7446 42.1778 61.3239C34.7464 63.9033 26.6129 63.5648 19.4214 60.3771C12.23 57.1894 6.51703 51.3902 3.43748 44.1517C0.357939 36.9133 0.141509 28.7756 2.83194 21.3837L1.92984 21.0553Z" fill="#FFB21E"/>
</svg>
