<svg width="64" height="64" viewBox="0 0 64 64" fill="none" xmlns="http://www.w3.org/2000/svg">
<path d="M30.3337 33.6667V27C30.3337 26.0833 29.5837 25.3333 28.667 25.3333H22.0003V22H28.667C29.5837 22 30.3337 21.25 30.3337 20.3333C30.3337 19.4167 29.5837 18.6667 28.667 18.6667H26.167C26.167 17.75 25.417 17 24.5003 17C23.5837 17 22.8337 17.75 22.8337 18.6667H20.3337C19.417 18.6667 18.667 19.4167 18.667 20.3333V27C18.667 27.9167 19.417 28.6667 20.3337 28.6667H27.0003V32H20.3337C19.417 32 18.667 32.75 18.667 33.6667C18.667 34.5833 19.417 35.3333 20.3337 35.3333H22.8337C22.8337 36.25 23.5837 37 24.5003 37C25.417 37 26.167 36.25 26.167 35.3333H28.667C29.5837 35.3333 30.3337 34.5833 30.3337 33.6667ZM43.467 34.0333L35.217 42.2833L31.6837 38.75C31.372 38.4384 30.9494 38.2633 30.5087 38.2633C30.0679 38.2633 29.6453 38.4384 29.3337 38.75C29.022 39.0616 28.847 39.4843 28.847 39.925C28.847 40.3657 29.022 40.7884 29.3337 41.1L34.0503 45.8167C34.7003 46.4667 35.7503 46.4667 36.4003 45.8167L45.8337 36.3833C45.9882 36.2291 46.1107 36.046 46.1944 35.8444C46.278 35.6428 46.3211 35.4266 46.3211 35.2083C46.3211 34.9901 46.278 34.7739 46.1944 34.5723C46.1107 34.3707 45.9882 34.1875 45.8337 34.0333C45.167 33.3833 44.117 33.3833 43.467 34.0333Z" fill="#FFB21E"/>
<circle cx="32" cy="32" r="31.5" stroke="black" stroke-opacity="0.1"/>
<path d="M64 32C64 38.4438 62.0546 44.7374 58.4185 50.0573C54.7823 55.3771 49.6248 59.4753 43.6209 61.8153C37.6171 64.1554 31.0466 64.6284 24.7695 63.1724C18.4923 61.7164 12.801 58.3993 8.44036 53.6551L9.14715 53.0054C13.377 57.6073 18.8976 60.8249 24.9864 62.2372C31.0752 63.6496 37.4486 63.1908 43.2723 60.9209C49.096 58.651 54.0988 54.6758 57.6259 49.5156C61.153 44.3553 63.04 38.2505 63.04 32H64Z" fill="#FFB21E"/>
</svg>
