<svg width="64" height="64" viewBox="0 0 64 64" fill="none" xmlns="http://www.w3.org/2000/svg">
<path d="M40.317 20.3334L41.367 22.6167L43.6503 23.6667L41.367 24.7167L40.317 27L39.267 24.7167L36.9837 23.6667L39.267 22.6167L40.317 20.3334ZM45.3337 35.3334C47.167 35.3334 48.667 33.8334 48.667 32C48.667 30.1667 45.3337 25.3334 45.3337 25.3334C45.3337 25.3334 42.0003 30.1667 42.0003 32C42.0003 33.8334 43.5003 35.3334 45.3337 35.3334ZM30.3337 22.1667V18.6667H33.667C34.617 18.6667 35.5003 18.95 36.2503 19.4167L38.6337 17.0334C37.2104 15.9354 35.4645 15.3379 33.667 15.3334H24.5003V18.6667H27.0003V22.1834C24.0337 22.8 21.667 24.9834 20.7503 27.8334H24.3503C25.2337 26.35 26.817 25.3334 28.667 25.3334C31.367 25.3334 33.567 27.4834 33.6503 30.1667L37.0003 31.4167V30.3334C37.0007 28.4123 36.3374 26.5501 35.1225 25.0619C33.9077 23.5737 32.2159 22.5509 30.3337 22.1667ZM48.667 43.6667V45.3334L35.3337 49.5L23.667 46.2667V48.6667H13.667V30.3334H26.9503L37.217 34.1667C38.1318 34.5118 38.92 35.1271 39.4767 35.9309C40.0334 36.7347 40.3323 37.6889 40.3337 38.6667H43.667C46.4337 38.6667 48.667 40.9 48.667 43.6667ZM20.3337 45.3334V33.6667H17.0003V45.3334H20.3337ZM45.167 42.95C44.9003 42.4 44.317 42.0167 43.667 42.0167H34.7503C33.8503 42.0167 32.967 41.8667 32.117 41.5834L28.1503 40.2667L29.2003 37.1L33.167 38.4167C33.6837 38.5834 37.0003 38.6667 37.0003 38.6667C37.0003 38.05 36.617 37.5 36.0503 37.2834L26.3503 33.6667H23.667V42.8L35.2837 46.0167L45.167 42.95Z" fill="#1254FF"/>
<circle cx="32" cy="32" r="31.5" stroke="black" stroke-opacity="0.1"/>
<path d="M59.7128 16C55.658 8.9769 49.088 3.75524 41.3308 1.39058C33.5736 -0.974068 25.208 -0.305319 17.925 3.26164C10.6419 6.82861 4.98487 13.0277 2.09729 20.6058C-0.790281 28.1839 -0.692949 36.5756 2.36961 44.0847L3.25852 43.7222C0.287838 36.4384 0.193427 28.2983 2.99437 20.9476C5.79532 13.5969 11.2827 7.58375 18.3472 4.12379C25.4117 0.66384 33.5264 0.0151534 41.0509 2.30887C48.5753 4.60258 54.9483 9.66759 58.8814 16.48L59.7128 16Z" fill="#1254FF"/>
</svg>
