<svg width="166" height="43" viewBox="0 0 166 43" fill="none" xmlns="http://www.w3.org/2000/svg">
<path d="M20.8398 42.504V29.112C19.9438 30.392 18.7758 31.432 17.3358 32.232C15.9278 33 14.2318 33.384 12.2478 33.384C9.91184 33.384 7.86384 32.84 6.10384 31.752C4.37584 30.632 3.03184 29.128 2.07184 27.24C1.11184 25.352 0.631836 23.272 0.631836 21C0.631836 18.696 1.11184 16.616 2.07184 14.76C3.03184 12.872 4.37584 11.384 6.10384 10.296C7.86384 9.176 9.91184 8.616 12.2478 8.616C14.2318 8.616 15.9278 9 17.3358 9.768C18.7758 10.504 19.9438 11.528 20.8398 12.84V9H24.4398V42.504H20.8398ZM12.7278 30.12C14.5198 30.12 16.0238 29.704 17.2398 28.872C18.4878 28.04 19.4318 26.936 20.0718 25.56C20.7118 24.152 21.0318 22.632 21.0318 21C21.0318 19.336 20.7118 17.816 20.0718 16.44C19.4318 15.064 18.4878 13.96 17.2398 13.128C16.0238 12.296 14.5198 11.88 12.7278 11.88C10.9678 11.88 9.44784 12.296 8.16784 13.128C6.88784 13.96 5.91184 15.064 5.23984 16.44C4.56784 17.816 4.23184 19.336 4.23184 21C4.23184 22.632 4.56784 24.152 5.23984 25.56C5.91184 26.936 6.88784 28.04 8.16784 28.872C9.44784 29.704 10.9678 30.12 12.7278 30.12Z" fill="black"/>
<path d="M42.8107 33.384C39.6747 33.384 37.1307 32.968 35.1787 32.136C33.2267 31.272 31.7547 30.088 30.7627 28.584C29.8027 27.08 29.2427 25.384 29.0827 23.496H32.8267C32.9227 25.032 33.4347 26.28 34.3627 27.24C35.2907 28.168 36.5067 28.856 38.0107 29.304C39.5467 29.752 41.2267 29.976 43.0507 29.976C45.7387 29.976 47.8667 29.512 49.4347 28.584C51.0027 27.624 51.7867 26.216 51.7867 24.36C51.7867 23.24 51.3867 22.344 50.5867 21.672C49.8187 20.968 48.7787 20.392 47.4667 19.944C46.1867 19.496 44.7787 19.096 43.2427 18.744C41.7067 18.36 40.1547 17.96 38.5867 17.544C37.0507 17.128 35.6267 16.6 34.3147 15.96C33.0347 15.32 31.9947 14.504 31.1947 13.512C30.4267 12.488 30.0427 11.192 30.0427 9.624C30.0427 7.032 31.0347 4.92 33.0187 3.288C35.0347 1.656 38.0267 0.839996 41.9947 0.839996C44.8107 0.839996 47.1307 1.272 48.9547 2.136C50.7787 2.968 52.1387 4.072 53.0347 5.448C53.9627 6.824 54.4747 8.312 54.5707 9.91199H50.8747C50.6827 8.312 49.8827 6.968 48.4747 5.88C47.0667 4.76 44.9067 4.2 41.9947 4.2C40.2027 4.2 38.7467 4.376 37.6267 4.72799C36.5067 5.08 35.6427 5.544 35.0347 6.12C34.4587 6.664 34.0587 7.24 33.8347 7.84799C33.6427 8.456 33.5467 9.032 33.5467 9.576C33.5467 10.632 33.9307 11.496 34.6987 12.168C35.4987 12.808 36.5387 13.352 37.8187 13.8C39.1307 14.216 40.5707 14.6 42.1387 14.952C43.7067 15.304 45.2587 15.704 46.7947 16.152C48.3627 16.568 49.7867 17.112 51.0667 17.784C52.3787 18.424 53.4187 19.256 54.1867 20.28C54.9867 21.304 55.3867 22.616 55.3867 24.216C55.3867 27.16 54.2667 29.432 52.0267 31.032C49.7867 32.6 46.7147 33.384 42.8107 33.384Z" fill="black"/>
<path d="M60.198 42.504V9H63.798V12.84C64.694 11.528 65.846 10.504 67.254 9.768C68.694 9 70.406 8.616 72.39 8.616C74.726 8.616 76.758 9.176 78.486 10.296C80.246 11.384 81.606 12.872 82.566 14.76C83.526 16.616 84.006 18.696 84.006 21C84.006 23.272 83.526 25.352 82.566 27.24C81.606 29.128 80.246 30.632 78.486 31.752C76.758 32.84 74.726 33.384 72.39 33.384C70.406 33.384 68.694 33 67.254 32.232C65.846 31.432 64.694 30.392 63.798 29.112V42.504H60.198ZM71.91 30.12C73.702 30.12 75.222 29.704 76.47 28.872C77.75 28.04 78.726 26.936 79.398 25.56C80.07 24.152 80.406 22.632 80.406 21C80.406 19.336 80.07 17.816 79.398 16.44C78.726 15.064 77.75 13.96 76.47 13.128C75.222 12.296 73.702 11.88 71.91 11.88C70.15 11.88 68.646 12.296 67.398 13.128C66.15 13.96 65.206 15.064 64.566 16.44C63.926 17.816 63.606 19.336 63.606 21C63.606 22.632 63.926 24.152 64.566 25.56C65.206 26.936 66.15 28.04 67.398 28.872C68.646 29.704 70.15 30.12 71.91 30.12Z" fill="black"/>
<path d="M98.8728 33.384C96.5368 33.384 94.4888 32.84 92.7288 31.752C91.0008 30.632 89.6568 29.128 88.6968 27.24C87.7368 25.352 87.2568 23.272 87.2568 21C87.2568 18.696 87.7368 16.616 88.6968 14.76C89.6568 12.872 91.0008 11.384 92.7288 10.296C94.4888 9.176 96.5368 8.616 98.8728 8.616C100.857 8.616 102.553 9 103.961 9.768C105.401 10.536 106.569 11.576 107.465 12.888V9H111.065V33H107.465V29.16C106.569 30.44 105.401 31.464 103.961 32.232C102.553 33 100.857 33.384 98.8728 33.384ZM99.3528 30.12C101.145 30.12 102.649 29.704 103.865 28.872C105.113 28.04 106.057 26.936 106.697 25.56C107.337 24.152 107.657 22.632 107.657 21C107.657 19.336 107.337 17.816 106.697 16.44C106.057 15.064 105.113 13.96 103.865 13.128C102.649 12.296 101.145 11.88 99.3528 11.88C97.5928 11.88 96.0728 12.296 94.7928 13.128C93.5128 13.96 92.5368 15.064 91.8648 16.44C91.1928 17.816 90.8568 19.336 90.8568 21C90.8568 22.632 91.1928 24.152 91.8648 25.56C92.5368 26.936 93.5128 28.04 94.7928 28.872C96.0728 29.704 97.5928 30.12 99.3528 30.12Z" fill="black"/>
<path d="M127.612 33.384C125.212 33.384 123.132 32.84 121.372 31.752C119.612 30.632 118.236 29.128 117.244 27.24C116.284 25.352 115.804 23.272 115.804 21C115.804 18.696 116.284 16.616 117.244 14.76C118.236 12.872 119.612 11.384 121.372 10.296C123.132 9.176 125.212 8.616 127.612 8.616C130.46 8.616 132.876 9.352 134.86 10.824C136.876 12.296 138.236 14.2 138.94 16.536H135.052C134.508 15.16 133.628 14.04 132.412 13.176C131.228 12.312 129.788 11.88 128.092 11.88C126.332 11.88 124.796 12.296 123.484 13.128C122.172 13.96 121.164 15.064 120.46 16.44C119.756 17.816 119.404 19.336 119.404 21C119.404 22.632 119.756 24.152 120.46 25.56C121.164 26.936 122.172 28.04 123.484 28.872C124.796 29.704 126.332 30.12 128.092 30.12C129.788 30.12 131.228 29.688 132.412 28.824C133.628 27.96 134.508 26.84 135.052 25.464H138.94C138.236 27.8 136.876 29.704 134.86 31.176C132.876 32.648 130.46 33.384 127.612 33.384Z" fill="black"/>
<path d="M154.057 33.384C151.625 33.384 149.497 32.84 147.673 31.752C145.849 30.632 144.425 29.128 143.401 27.24C142.409 25.352 141.913 23.272 141.913 21C141.913 18.696 142.393 16.616 143.353 14.76C144.313 12.872 145.689 11.384 147.481 10.296C149.273 9.176 151.385 8.616 153.817 8.616C156.281 8.616 158.393 9.176 160.153 10.296C161.945 11.384 163.321 12.872 164.281 14.76C165.241 16.616 165.721 18.696 165.721 21V22.44H145.609C145.801 23.848 146.249 25.144 146.953 26.328C147.689 27.48 148.665 28.408 149.881 29.112C151.097 29.784 152.505 30.12 154.105 30.12C155.801 30.12 157.225 29.752 158.377 29.016C159.529 28.248 160.425 27.272 161.065 26.088H165.001C164.169 28.232 162.841 29.992 161.017 31.368C159.225 32.712 156.905 33.384 154.057 33.384ZM145.657 19.08H161.977C161.657 17.032 160.793 15.32 159.385 13.944C157.977 12.568 156.121 11.88 153.817 11.88C151.513 11.88 149.657 12.568 148.249 13.944C146.873 15.32 146.009 17.032 145.657 19.08Z" fill="black"/>
</svg>
